<mxfile host="65bd71144e" scale="2" border="0">
    <diagram id="rrjlNG450EwHesaG40al" name="第 1 页">
        <mxGraphModel dx="761" dy="539" grid="1" gridSize="10" guides="1" tooltips="1" connect="1" arrows="1" fold="1" page="1" pageScale="1" pageWidth="827" pageHeight="1169" math="1" shadow="0">
            <root>
                <mxCell id="0"/>
                <mxCell id="1" parent="0"/>
                <mxCell id="20" value="" style="edgeStyle=none;html=1;fontFamily=Times New Roman;fontSize=16;fontColor=#000000;" parent="1" source="2" target="19" edge="1">
                    <mxGeometry relative="1" as="geometry"/>
                </mxCell>
                <mxCell id="2" value="SolverMPC.cpp" style="rounded=1;whiteSpace=wrap;html=1;fontFamily=Times New Roman;fontSize=16;fontStyle=1;fillColor=#ffcccc;strokeColor=#36393d;" parent="1" vertex="1">
                    <mxGeometry x="128" y="240" width="120" height="60" as="geometry"/>
                </mxCell>
                <mxCell id="4" value="C_SolverMPC.cpython-37m-x86_64-linux-gnu.so" style="whiteSpace=wrap;html=1;rounded=1;fontFamily=Times New Roman;fontSize=14;fontStyle=1;fillColor=#cdeb8b;strokeColor=#36393d;" parent="1" vertex="1">
                    <mxGeometry x="530" y="240" width="170" height="60" as="geometry"/>
                </mxCell>
                <mxCell id="21" style="edgeStyle=none;html=1;entryX=0;entryY=0.5;entryDx=0;entryDy=0;fontFamily=Times New Roman;fontSize=16;fontColor=#000000;" parent="1" source="19" target="4" edge="1">
                    <mxGeometry relative="1" as="geometry"/>
                </mxCell>
                <mxCell id="19" value="&lt;font style=&quot;font-size: 16px&quot;&gt;CMakeLists.txt&lt;/font&gt;" style="whiteSpace=wrap;html=1;fontSize=16;fontFamily=Times New Roman;rounded=1;fontStyle=1;fillColor=#eeeeee;strokeColor=#36393d;" parent="1" vertex="1">
                    <mxGeometry x="324" y="240" width="120" height="60" as="geometry"/>
                </mxCell>
                <mxCell id="22" value="" style="group" vertex="1" connectable="0" parent="1">
                    <mxGeometry x="249" y="110" width="270" height="110" as="geometry"/>
                </mxCell>
                <mxCell id="11" value="&lt;div style=&quot;font-family: consolas, &amp;quot;courier new&amp;quot;, monospace, &amp;quot;droid sans mono&amp;quot;, monospace, monospace; font-weight: normal; font-size: 16px; line-height: 24px;&quot;&gt;&lt;div style=&quot;font-size: 16px&quot;&gt;&lt;span style=&quot;font-size: 16px&quot;&gt;...&lt;/span&gt;&lt;/div&gt;&lt;div style=&quot;color: rgb(0 , 0 , 0) ; font-size: 16px&quot;&gt;&lt;span style=&quot;color: rgb(0 , 0 , 255) ; font-size: 16px&quot;&gt;pybind11_add_module&lt;/span&gt;&lt;/div&gt;&lt;div style=&quot;color: rgb(0 , 0 , 0) ; font-size: 16px&quot;&gt;&lt;span style=&quot;font-family: &amp;quot;consolas&amp;quot; , &amp;quot;courier new&amp;quot; , monospace , &amp;quot;droid sans mono&amp;quot; , monospace , monospace ; font-size: 16px&quot;&gt;(&lt;/span&gt;C_SolverMPC SolverMPC.cpp)&lt;/div&gt;&lt;div style=&quot;color: rgb(0 , 0 , 0) ; font-size: 16px&quot;&gt;...&lt;/div&gt;&lt;/div&gt;" style="text;whiteSpace=wrap;html=1;fontSize=16;fontFamily=Times New Roman;labelBackgroundColor=none;" parent="22" vertex="1">
                    <mxGeometry width="250" height="110" as="geometry"/>
                </mxCell>
                <mxCell id="16" value="" style="shape=note;whiteSpace=wrap;html=1;backgroundOutline=1;darkOpacity=0.05;fontFamily=Times New Roman;fontSize=16;fontColor=#000000;fillColor=none;labelBackgroundColor=none;" parent="22" vertex="1">
                    <mxGeometry y="5" width="270" height="100" as="geometry"/>
                </mxCell>
                <mxCell id="24" value="" style="group" vertex="1" connectable="0" parent="1">
                    <mxGeometry x="477.5" y="320" width="275" height="60" as="geometry"/>
                </mxCell>
                <mxCell id="14" value="" style="shape=note;whiteSpace=wrap;html=1;backgroundOutline=1;darkOpacity=0.05;fontFamily=Times New Roman;fontSize=16;fillColor=none;" parent="24" vertex="1">
                    <mxGeometry width="275" height="60" as="geometry"/>
                </mxCell>
                <mxCell id="12" value="&lt;div style=&quot;font-family: consolas, &amp;quot;courier new&amp;quot;, monospace, &amp;quot;droid sans mono&amp;quot;, monospace, monospace; font-weight: normal; font-size: 16px; line-height: 24px;&quot;&gt;&lt;div style=&quot;color: rgb(0 , 0 , 0) ; font-size: 16px&quot;&gt;&lt;span style=&quot;color: rgb(175 , 0 , 219) ; font-size: 16px&quot;&gt;import&lt;/span&gt;&lt;span style=&quot;color: rgb(0 , 0 , 0) ; font-size: 16px&quot;&gt;&amp;nbsp;C_SolverMPC &lt;/span&gt;&lt;span style=&quot;color: rgb(175 , 0 , 219) ; font-size: 16px&quot;&gt;as&lt;/span&gt;&lt;span style=&quot;color: rgb(0 , 0 , 0) ; font-size: 16px&quot;&gt; &lt;/span&gt;&lt;span style=&quot;color: rgb(38 , 127 , 153) ; font-size: 16px&quot;&gt;mpc&lt;/span&gt;&lt;/div&gt;&lt;div style=&quot;font-size: 16px&quot;&gt;&lt;span style=&quot;font-size: 16px&quot;&gt;...&lt;/span&gt;&lt;/div&gt;&lt;/div&gt;" style="text;whiteSpace=wrap;html=1;fontSize=16;fontFamily=Times New Roman;labelBackgroundColor=none;" parent="24" vertex="1">
                    <mxGeometry width="230" height="60" as="geometry"/>
                </mxCell>
                <mxCell id="25" value="" style="group" vertex="1" connectable="0" parent="1">
                    <mxGeometry x="88" y="315" width="200" height="80" as="geometry"/>
                </mxCell>
                <mxCell id="3" value="&lt;div style=&quot;font-family: consolas, &amp;quot;courier new&amp;quot;, monospace, &amp;quot;droid sans mono&amp;quot;, monospace, monospace; font-size: 16px; line-height: 24px;&quot;&gt;&lt;div style=&quot;font-size: 16px&quot;&gt;&lt;span style=&quot;font-size: 16px&quot;&gt;...&lt;/span&gt;&lt;/div&gt;&lt;div style=&quot;font-size: 16px&quot;&gt;&lt;span style=&quot;color: rgb(0 , 0 , 255) ; font-size: 16px&quot;&gt;PYBIND11_MODULE&lt;/span&gt;&lt;/div&gt;&lt;div style=&quot;font-size: 16px&quot;&gt;(C_SolverMPC, m) {}&lt;/div&gt;&lt;/div&gt;" style="text;html=1;align=left;verticalAlign=middle;resizable=0;points=[];autosize=1;strokeColor=none;fillColor=none;fontSize=16;labelBackgroundColor=none;" parent="25" vertex="1">
                    <mxGeometry width="200" height="80" as="geometry"/>
                </mxCell>
                <mxCell id="13" value="" style="shape=note;whiteSpace=wrap;html=1;backgroundOutline=1;darkOpacity=0.05;fontFamily=Times New Roman;fontSize=16;fillColor=none;" parent="25" vertex="1">
                    <mxGeometry y="5" width="200" height="75" as="geometry"/>
                </mxCell>
            </root>
        </mxGraphModel>
    </diagram>
</mxfile>